<svg
        version="1.1"
        width="237.965"
        height="65"
        viewBox="817.0175,433.5,237.965,65"
        id="svg5"
        xmlns:xlink="http://www.w3.org/1999/xlink"
        xmlns="http://www.w3.org/2000/svg">
    <defs
            id="defs3">
        <linearGradient
                x1="817"
                x2="1049.9949"
                gradientUnits="userSpaceOnUse"
                id="linearGradient14"
        >
            <stop
                    offset="0"
                    stop-color="#13b0f5"
                    id="stop12"/>
            <stop
                    offset="1"
                    stop-color="#e70faa"
                    id="stop13"/>
            <stop
                    offset="0.27067"
                    stop-color="#3890e3"
                    id="stop14"/>
        </linearGradient>
        <linearGradient
                x1="817"
                y1="462"
                x2="1049.9949"
                y2="464.97119"
                gradientUnits="userSpaceOnUse"
                id="linearGradient11"
        >
            <stop
                    offset="0"
                    stop-color="#13b0f5"
                    id="stop9"/>
            <stop
                    offset="1"
                    stop-color="#e70faa"
                    id="stop10"/>
            <stop
                    offset="0.27067"
                    stop-color="#3890e3"
                    id="stop11"/>
        </linearGradient>
        <linearGradient
                x1="817"
                y1="462"
                x2="1049.99482"
                y2="464.97119"
                gradientUnits="userSpaceOnUse"
                id="linearGradient8">
            <stop
                    offset="0"
                    stop-color="#13b0f5"
                    id="stop6"/>
            <stop
                    offset="1"
                    stop-color="#e70faa"
                    id="stop7"/>
            <stop
                    offset="0.27067"
                    stop-color="#3890e3"
                    id="stop8"/>
        </linearGradient>
        <linearGradient
                id="swatch5"
        >
            <stop
                    style="stop-color:#000000;stop-opacity:1;"
                    offset="0"
                    id="stop5"/>
        </linearGradient>
        <clipPath
                id="clipPath1">
            <rect
                    x="817.0175"
                    y="433.5"
                    width="237.965"
                    height="65"
                    id="clip-1"
                    fill="none"
                    stroke="none"
                    stroke-width="1"/>
        </clipPath>
        <linearGradient
                x1="817"
                y1="462"
                x2="1049.99482"
                y2="464.97119"
                gradientUnits="userSpaceOnUse"
                id="color-1"
                xlink:href="#linearGradient14">
            <stop
                    offset="0"
                    stop-color="#13b0f5"
                    id="stop1"/>
            <stop
                    offset="1"
                    stop-color="#e70faa"
                    id="stop2"/>
            <stop
                    offset="0.27067"
                    stop-color="#3890e3"
                    id="stop3"/>
        </linearGradient>
        <linearGradient
                xlink:href="#color-1"
                id="linearGradient15"
                gradientUnits="userSpaceOnUse"
                x1="817.26801"
                y1="462"
                x2="1055.0864"
                y2="462"/>
    </defs>
    <g
            fill="none"
            stroke="none"
            stroke-width="none"
            stroke-miterlimit="10"
            stroke-dasharray=""
            stroke-dashoffset="0"
            font-family="none"
            font-size="none"
            style="mix-blend-mode: normal"
            id="g5">
        <g
                id="g4">
            <g
                    clip-path="url(#clip-1)"
                    id="g3">
                <g
                        id="Group 1"
                        fill="url(#color-1)"
                        fill-rule="evenodd"
                        stroke="#ffffff"
                        stroke-width="6"
                        stroke-linecap="round"
                        style="stroke:none;stroke-opacity:1">
                    <path
                            d="m 1054.9825,462.62 v 5.33 c -0.7945,-0.004 -1.5885,0.0434 -2.377,0.141 -1.836,0.23667 -3.2887,0.77067 -4.358,1.602 -0.019,0.0149 -0.039,0.0299 -0.058,0.045 -1.4947,1.19133 -2.242,2.74033 -2.242,4.647 0,0.42528 0.04,0.84963 0.111,1.269 0.14,0.86267 0.4107,1.852 0.812,2.968 0.01,0.0177 0.013,0.0353 0.02,0.053 0.628,1.73333 1.3103,3.64 2.047,5.72 0.7367,2.08 1.3217,4.20333 1.755,6.37 0.2335,1.15086 0.3544,2.32171 0.361,3.496 v 0.055 c 7e-4,0.92287 -0.077,1.84414 -0.231,2.754 h -15.015 v -5.655 h 8.71 c 0,-1.3 -0.2167,-2.654 -0.65,-4.062 -0.4333,-1.40867 -0.9207,-2.86033 -1.462,-4.355 -0.542,-1.49533 -1.0297,-2.96867 -1.463,-4.42 -0.2612,-0.86337 -0.4476,-1.74764 -0.557,-2.643 -0.062,-0.51438 -0.093,-1.03195 -0.093,-1.55 0,-0.72483 0.065,-1.44824 0.207,-2.159 0.194,-0.938 0.5243,-1.775 0.991,-2.511 0.023,-0.0359 0.046,-0.0716 0.07,-0.107 0.5913,-0.8832 1.343,-1.64774 2.216,-2.254 0.4627,-0.32516 0.9494,-0.61466 1.456,-0.866 0.9235,-0.45627 1.889,-0.82198 2.883,-1.092 0.9107,-0.24896 1.8366,-0.43803 2.772,-0.566 v 0.91 c -0.9656,-0.15137 -1.9211,-0.36176 -2.861,-0.63 -0.9599,-0.2728 -1.8947,-0.62743 -2.794,-1.06 -0.7501,-0.35884 -1.4528,-0.80927 -2.092,-1.341 -0.612,-0.51159 -1.1448,-1.11111 -1.581,-1.779 -0.5505,-0.85971 -0.9244,-1.82036 -1.1,-2.826 -0.1141,-0.63323 -0.17,-1.27558 -0.167,-1.919 0,-0.95707 0.1064,-1.91118 0.307,-2.847 0.096,-0.45288 0.2101,-0.9016 0.343,-1.345 0.4333,-1.452 0.921,-2.92533 1.463,-4.42 0.5413,-1.49533 1.0287,-2.958 1.462,-4.388 0.4333,-1.43 0.65,-2.77333 0.65,-4.03 h -8.71 V 433.5 h 15.015 c 0.155,0.897 0.2323,1.80571 0.231,2.716 0,1.01067 -0.092,2.04467 -0.276,3.102 -0.027,0.15165 -0.055,0.303 -0.085,0.454 -0.4333,2.18867 -1.0183,4.323 -1.755,6.403 -0.7367,2.08 -1.419,3.98667 -2.047,5.72 -0.614,1.694 -0.9283,3.098 -0.943,4.212 -2e-4,0.026 -2e-4,0.052 0,0.078 0,1.89133 0.7357,3.431 2.207,4.619 0.012,0.01 0.024,0.0194 0.036,0.029 0.6324,0.49127 1.3439,0.87105 2.104,1.123 0.668,0.232 1.4147,0.403 2.24,0.513 0.8118,0.10439 1.6296,0.15483 2.448,0.151 z M 821.1775,433.5 h 15.015 v 5.655 h -8.645 c 0,1.25667 0.206,2.6 0.618,4.03 0.36957,1.27878 0.78383,2.54422 1.242,3.794 0.0723,0.19836 0.14568,0.39637 0.22,0.594 0.56333,1.49467 1.06167,2.968 1.495,4.42 0.26116,0.86305 0.44752,1.74698 0.557,2.642 0.0615,0.51438 0.0925,1.03195 0.093,1.55 0,1.86333 -0.43333,3.445 -1.3,4.745 -0.67096,0.99544 -1.54008,1.84174 -2.553,2.486 -0.3606,0.23307 -0.73458,0.44477 -1.12,0.634 -0.8321,0.40549 -1.69681,0.74034 -2.585,1.001 -0.83533,0.24933 -1.73133,0.45633 -2.688,0.621 -0.13783,0.0237 -0.27583,0.0464 -0.414,0.068 v -0.91 c 0.91718,0.12274 1.82566,0.30343 2.72,0.541 1.08867,0.29333 2.07767,0.66567 2.967,1.117 1.582,0.80133 2.80633,1.84133 3.673,3.12 0.52777,0.7909 0.89631,1.67709 1.085,2.609 0.14743,0.71314 0.21949,1.4398 0.215,2.168 -0.004,0.95707 -0.10644,1.91118 -0.307,2.847 -0.0956,0.45322 -0.21008,0.90227 -0.343,1.346 -0.43333,1.45133 -0.93167,2.92467 -1.495,4.42 -0.41048,1.08587 -0.79062,2.18296 -1.14,3.29 -0.11092,0.35391 -0.21826,0.70892 -0.322,1.065 -0.24804,0.83727 -0.42501,1.69398 -0.529,2.561 -0.0586,0.49819 -0.0883,0.99937 -0.089,1.501 h 8.645 v 5.655 h -15.015 c -0.15443,-0.90986 -0.2317,-1.83113 -0.231,-2.754 0,-1.16333 0.12033,-2.347 0.361,-3.551 0.43333,-2.16667 1.02933,-4.29 1.788,-6.37 0.758,-2.08 1.44033,-3.98667 2.047,-5.72 0.60667,-1.73333 0.91,-3.16333 0.91,-4.29 0.0116,-0.86735 -0.16553,-1.72686 -0.519,-2.519 -0.38954,-0.83178 -0.96871,-1.56063 -1.691,-2.128 -1.47333,-1.192 -3.74833,-1.788 -6.825,-1.788 v -5.33 c 0.80417,0.004 1.60778,-0.0433 2.406,-0.141 1.816,-0.232 3.24867,-0.749 4.298,-1.551 0.0408,-0.0315 0.0811,-0.0634 0.121,-0.096 0.72216,-0.56709 1.30132,-1.29558 1.691,-2.127 0.35364,-0.79244 0.53073,-1.65231 0.519,-2.52 -0.003,-0.42515 -0.0394,-0.84941 -0.108,-1.269 -0.13667,-0.87667 -0.404,-1.88367 -0.802,-3.021 -0.60667,-1.73333 -1.289,-3.64 -2.047,-5.72 -0.75867,-2.08 -1.35467,-4.214 -1.788,-6.402 -0.19183,-0.9574 -0.30819,-1.92838 -0.348,-2.904 -0.009,-0.21867 -0.013,-0.43633 -0.013,-0.653 -10e-4,-0.91029 0.076,-1.819 0.231,-2.716 z m 147.875,56.55 18.915,-52.13 5.33,1.885 -19.045,52.195 z m 50.96,-23.465 -18.265,-10.335 2.795,-4.81 21.06,12.09 v 6.24 l -21.06,12.09 -2.795,-4.94 z m -173.68,-3.055 21.06,-12.09 2.795,4.81 -18.265,10.335 18.265,10.335 -2.795,4.94 -21.06,-12.09 z m 54.08,21.97 v -45.435 h 6.24 V 485.5 Z m 15.73,13 v -45.435 h 6.175 V 498.5 Z m 28.275,-12.35 c -2.77333,0 -5.30833,-0.715 -7.605,-2.145 -2.23558,-1.40026 -4.06803,-3.3585 -5.317,-5.682 -0.0484,-0.0879 -0.0961,-0.17627 -0.143,-0.265 -0.96343,-1.84322 -1.58577,-3.84541 -1.837,-5.91 -0.12035,-0.93951 -0.1798,-1.88582 -0.178,-2.833 0,-3.29333 0.68267,-6.20733 2.048,-8.742 1.36467,-2.53533 3.23867,-4.52867 5.622,-5.98 2.38333,-1.452 5.04833,-2.178 7.995,-2.178 3.25,0 5.77433,0.75833 7.573,2.275 1.41946,1.20931 2.52179,2.74728 3.211,4.48 0.2181,0.53191 0.40476,1.07618 0.559,1.63 0.43745,1.65961 0.7369,3.21192 0.895,4.852 0.12009,1.21728 0.17916,2.43981 0.177,3.663 -0.004,1.1303 -0.0884,2.25889 -0.254,3.377 -0.1052,0.72068 -0.23729,1.43718 -0.396,2.148 -0.43333,1.95 -1.12667,3.79167 -2.08,5.525 -0.95333,1.73333 -2.275,3.131 -3.965,4.193 -0.99347,0.61325 -2.08664,1.04781 -3.23,1.284 -0.87133,0.18933 -1.81067,0.29133 -2.818,0.306 -0.0857,10e-4 -0.17133,0.002 -0.257,0.002 z m -61.425,-0.65 v -42.185 h 6.24 V 485.5 Z m 73.71,-7.085 v -25.35 h 6.24 V 485.5 h -5.72 l -0.13,-1.202 c -0.0867,-0.802 -0.17333,-1.76633 -0.26,-2.893 -0.0364,-0.46755 -0.066,-0.9356 -0.089,-1.404 -0.0207,-0.42733 -0.0333,-0.83167 -0.038,-1.213 -0.002,-0.12433 -0.003,-0.24866 -0.003,-0.373 z m -10.53,2.34 c 0.91137,0.006 1.82079,-0.085 2.713,-0.271 1.10223,-0.2271 2.154,-0.65268 3.104,-1.256 1.582,-1.01867 2.763,-2.39467 3.543,-4.128 0.59545,-1.33985 0.96608,-2.76865 1.097,-4.229 0.0492,-0.5172 0.0715,-1.03646 0.073,-1.556 0.003,-1.0206 -0.0834,-2.0395 -0.264,-3.044 -0.18569,-1.03568 -0.50083,-2.04392 -0.938,-3.001 -0.802,-1.73333 -1.99367,-3.07667 -3.575,-4.03 -0.97932,-0.58129 -2.05341,-0.98547 -3.173,-1.194 -0.85039,-0.16159 -1.71441,-0.24062 -2.58,-0.236 -1.083,-0.01 -2.16277,0.11944 -3.213,0.384 -1.80288,0.44616 -3.41939,1.44896 -4.62,2.866 -1.33998,1.59334 -2.21929,3.52243 -2.543,5.579 -0.14899,0.88415 -0.22225,1.77939 -0.219,2.676 -0.006,1.06059 0.1065,2.11852 0.336,3.154 0.21741,0.97289 0.56345,1.91249 1.029,2.794 0.91,1.71133 2.156,3.05467 3.738,4.03 1.26518,0.77148 2.68824,1.24731 4.163,1.392 0.44142,0.0472 0.88506,0.0706 1.329,0.07 z m -30.875,-41.08 h 7.735 v 6.695 h -7.735 z"
                            id="CompoundPath1"
                            style="fill:url(#linearGradient15);stroke:none;stroke-width:0;stroke-dasharray:none;stroke-opacity:1"
                    />
                </g>
            </g>
        </g>
    </g>
</svg>
