<svg version="1.1" xmlns="http://www.w3.org/2000/svg" width="237.965" height="65" viewBox="817.0175,433.5,237.965,65">
    <defs>
        <clipPath id="clip-1">
            <rect x="817.0175" y="433.5" width="237.965" height="65" id="clip-1" fill="none" stroke="none"
                  stroke-width="1"/>
        </clipPath>
        <linearGradient x1="817" y1="462" x2="1049.99482" y2="464.97119" gradientUnits="userSpaceOnUse" id="color-1">
            <stop offset="0" stop-color="#13b0f5"/>
            <stop offset="1" stop-color="#e70faa"/>
            <stop offset="0.27067" stop-color="#3890e3"/>
        </linearGradient>
    </defs>
    <g fill="none" stroke="none" stroke-width="none" stroke-miterlimit="10" stroke-dasharray="" stroke-dashoffset="0"
       font-family="none" font-size="none" style="mix-blend-mode: normal">
        <g>
            <g clip-path="url(#clip-1)" id="Group 1">
                <g id="Group 1" fill="url(#color-1)" fill-rule="evenodd" stroke="#ffffff" stroke-width="6"
                   stroke-linecap="round">
                    <path d="M1054.9825,462.62v5.33c-0.79453,-0.00369 -1.58848,0.0434 -2.377,0.141c-1.836,0.23667 -3.28867,0.77067 -4.358,1.602c-0.01943,0.01488 -0.03876,0.02988 -0.058,0.045c-1.49467,1.19133 -2.242,2.74033 -2.242,4.647c0.00317,0.42528 0.04029,0.84963 0.111,1.269c0.14,0.86267 0.41067,1.852 0.812,2.968c0.00665,0.01767 0.01331,0.03534 0.02,0.053c0.628,1.73333 1.31033,3.64 2.047,5.72c0.73667,2.08 1.32167,4.20333 1.755,6.37c0.23347,1.15086 0.35437,2.32171 0.361,3.496c0,0.01867 0,0.037 0,0.055c0.0007,0.92287 -0.07657,1.84414 -0.231,2.754h-15.015v-5.655h8.71c0,-1.3 -0.21667,-2.654 -0.65,-4.062c-0.43333,-1.40867 -0.92067,-2.86033 -1.462,-4.355c-0.542,-1.49533 -1.02967,-2.96867 -1.463,-4.42c-0.26122,-0.86337 -0.44757,-1.74764 -0.557,-2.643c-0.06149,-0.51438 -0.09254,-1.03195 -0.093,-1.55c-0.0046,-0.72483 0.06476,-1.44824 0.207,-2.159c0.194,-0.938 0.52433,-1.775 0.991,-2.511c0.02299,-0.03589 0.04633,-0.07156 0.07,-0.107c0.59133,-0.8832 1.34298,-1.64774 2.216,-2.254c0.46268,-0.32516 0.94941,-0.61466 1.456,-0.866c0.92347,-0.45627 1.88898,-0.82198 2.883,-1.092c0.91066,-0.24896 1.83664,-0.43803 2.772,-0.566v0.91c-0.96564,-0.15137 -1.9211,-0.36176 -2.861,-0.63c-0.95993,-0.2728 -1.89469,-0.62743 -2.794,-1.06c-0.75007,-0.35884 -1.45276,-0.80927 -2.092,-1.341c-0.61204,-0.51159 -1.14483,-1.11111 -1.581,-1.779c-0.55049,-0.85971 -0.92442,-1.82036 -1.1,-2.826c-0.11412,-0.63323 -0.17002,-1.27558 -0.167,-1.919c0.00355,-0.95707 0.10644,-1.91118 0.307,-2.847c0.09568,-0.45288 0.21011,-0.9016 0.343,-1.345c0.43333,-1.452 0.921,-2.92533 1.463,-4.42c0.54133,-1.49533 1.02867,-2.958 1.462,-4.388c0.43333,-1.43 0.65,-2.77333 0.65,-4.03h-8.71v-5.655h15.015c0.155,0.897 0.23228,1.80571 0.231,2.716c0,1.01067 -0.092,2.04467 -0.276,3.102c-0.0266,0.15165 -0.05494,0.303 -0.085,0.454c-0.43333,2.18867 -1.01833,4.323 -1.755,6.403c-0.73667,2.08 -1.419,3.98667 -2.047,5.72c-0.614,1.694 -0.92833,3.098 -0.943,4.212c-0.00016,0.026 -0.00016,0.052 0,0.078c0,1.89133 0.73567,3.431 2.207,4.619c0.01197,0.0097 0.02397,0.01937 0.036,0.029c0.63236,0.49127 1.3439,0.87105 2.104,1.123c0.668,0.232 1.41467,0.403 2.24,0.513c0.81177,0.10439 1.62956,0.15483 2.448,0.151zM821.1775,433.5h15.015v5.655h-8.645c0,1.25667 0.206,2.6 0.618,4.03c0.36957,1.27878 0.78383,2.54422 1.242,3.794c0.07234,0.19836 0.14568,0.39637 0.22,0.594c0.56333,1.49467 1.06167,2.968 1.495,4.42c0.26116,0.86305 0.44752,1.74698 0.557,2.642c0.06149,0.51438 0.09254,1.03195 0.093,1.55c0,1.86333 -0.43333,3.445 -1.3,4.745c-0.67096,0.99544 -1.54008,1.84174 -2.553,2.486c-0.3606,0.23307 -0.73458,0.44477 -1.12,0.634c-0.8321,0.40549 -1.69681,0.74034 -2.585,1.001c-0.83533,0.24933 -1.73133,0.45633 -2.688,0.621c-0.13783,0.0237 -0.27583,0.04637 -0.414,0.068v-0.91c0.91718,0.12274 1.82566,0.30343 2.72,0.541c1.08867,0.29333 2.07767,0.66567 2.967,1.117c1.582,0.80133 2.80633,1.84133 3.673,3.12c0.52777,0.7909 0.89631,1.67709 1.085,2.609c0.14743,0.71314 0.21949,1.4398 0.215,2.168c-0.00355,0.95707 -0.10644,1.91118 -0.307,2.847c-0.09565,0.45322 -0.21008,0.90227 -0.343,1.346c-0.43333,1.45133 -0.93167,2.92467 -1.495,4.42c-0.41048,1.08587 -0.79062,2.18296 -1.14,3.29c-0.11092,0.35391 -0.21826,0.70892 -0.322,1.065c-0.24804,0.83727 -0.42501,1.69398 -0.529,2.561c-0.05863,0.49819 -0.08835,0.99937 -0.089,1.501h8.645v5.655h-15.015c-0.15443,-0.90986 -0.2317,-1.83113 -0.231,-2.754c0,-1.16333 0.12033,-2.347 0.361,-3.551c0.43333,-2.16667 1.02933,-4.29 1.788,-6.37c0.758,-2.08 1.44033,-3.98667 2.047,-5.72c0.60667,-1.73333 0.91,-3.16333 0.91,-4.29c0.01156,-0.86735 -0.16553,-1.72686 -0.519,-2.519c-0.38954,-0.83178 -0.96871,-1.56063 -1.691,-2.128c-1.47333,-1.192 -3.74833,-1.788 -6.825,-1.788v-5.33c0.80417,0.00381 1.60778,-0.04328 2.406,-0.141c1.816,-0.232 3.24867,-0.749 4.298,-1.551c0.04077,-0.03145 0.08111,-0.06345 0.121,-0.096c0.72216,-0.56709 1.30132,-1.29558 1.691,-2.127c0.35364,-0.79244 0.53073,-1.65231 0.519,-2.52c-0.00333,-0.42515 -0.03943,-0.84941 -0.108,-1.269c-0.13667,-0.87667 -0.404,-1.88367 -0.802,-3.021c-0.60667,-1.73333 -1.289,-3.64 -2.047,-5.72c-0.75867,-2.08 -1.35467,-4.214 -1.788,-6.402c-0.19183,-0.9574 -0.30819,-1.92838 -0.348,-2.904c-0.00867,-0.21867 -0.013,-0.43633 -0.013,-0.653c-0.00128,-0.91029 0.076,-1.819 0.231,-2.716zM969.0525,490.05l18.915,-52.13l5.33,1.885l-19.045,52.195zM1020.0125,466.585l-18.265,-10.335l2.795,-4.81l21.06,12.09v6.24l-21.06,12.09l-2.795,-4.94zM846.3325,463.53l21.06,-12.09l2.795,4.81l-18.265,10.335l18.265,10.335l-2.795,4.94l-21.06,-12.09zM900.4125,485.5v-45.435h6.24v45.435zM916.1425,498.5v-45.435h6.175v45.435zM944.4175,486.15c-2.77333,0 -5.30833,-0.715 -7.605,-2.145c-2.23558,-1.40026 -4.06803,-3.3585 -5.317,-5.682c-0.04841,-0.08793 -0.09607,-0.17627 -0.143,-0.265c-0.96343,-1.84322 -1.58577,-3.84541 -1.837,-5.91c-0.12035,-0.93951 -0.1798,-1.88582 -0.178,-2.833c0,-3.29333 0.68267,-6.20733 2.048,-8.742c1.36467,-2.53533 3.23867,-4.52867 5.622,-5.98c2.38333,-1.452 5.04833,-2.178 7.995,-2.178c3.25,0 5.77433,0.75833 7.573,2.275c1.41946,1.20931 2.52179,2.74728 3.211,4.48c0.2181,0.53191 0.40476,1.07618 0.559,1.63c0.43745,1.58855 0.7369,3.21192 0.895,4.852c0.12009,1.21728 0.17916,2.43981 0.177,3.663c-0.00352,1.1303 -0.08841,2.25889 -0.254,3.377c-0.1052,0.72068 -0.23729,1.43718 -0.396,2.148c-0.43333,1.95 -1.12667,3.79167 -2.08,5.525c-0.95333,1.73333 -2.275,3.131 -3.965,4.193c-0.99347,0.61325 -2.08664,1.04781 -3.23,1.284c-0.87133,0.18933 -1.81067,0.29133 -2.818,0.306c-0.08566,0.00129 -0.17133,0.00196 -0.257,0.002zM882.9925,485.5v-42.185h6.24v42.185zM956.7025,478.415v-25.35h6.24v32.435h-5.72l-0.13,-1.202c-0.08667,-0.802 -0.17333,-1.76633 -0.26,-2.893c-0.03636,-0.46755 -0.06603,-0.9356 -0.089,-1.404c-0.02067,-0.42733 -0.03333,-0.83167 -0.038,-1.213c-0.00184,-0.12433 -0.00284,-0.24866 -0.003,-0.373zM946.1725,480.755c0.91137,0.00581 1.82079,-0.08503 2.713,-0.271c1.10223,-0.2271 2.154,-0.65268 3.104,-1.256c1.582,-1.01867 2.763,-2.39467 3.543,-4.128c0.59545,-1.33985 0.96608,-2.76865 1.097,-4.229c0.04922,-0.5172 0.07358,-1.03646 0.073,-1.556c0.00499,-1.02059 -0.08337,-2.0395 -0.264,-3.044c-0.18569,-1.03568 -0.50083,-2.04392 -0.938,-3.001c-0.802,-1.73333 -1.99367,-3.07667 -3.575,-4.03c-0.97932,-0.58129 -2.05341,-0.98547 -3.173,-1.194c-0.85039,-0.16159 -1.71441,-0.24062 -2.58,-0.236c-1.083,-0.00961 -2.16277,0.11944 -3.213,0.384c-1.80288,0.44616 -3.41939,1.44896 -4.62,2.866c-1.33998,1.59334 -2.21929,3.52243 -2.543,5.579c-0.14899,0.88415 -0.22225,1.77939 -0.219,2.676c-0.00621,1.06059 0.1065,2.11852 0.336,3.154c0.21741,0.97289 0.56345,1.91249 1.029,2.794c0.91,1.71133 2.156,3.05467 3.738,4.03c1.26518,0.77148 2.68824,1.24731 4.163,1.392c0.44142,0.0472 0.88506,0.07057 1.329,0.07zM915.2975,439.675h7.735v6.695h-7.735z"
                          id="CompoundPath 1"/>
                </g>
            </g>
        </g>
    </g>
</svg>
