<svg version="1.1" xmlns="http://www.w3.org/2000/svg" width="152.1" height="171.225" viewBox="378.95,373.3875,152.1,171.225"><defs><clipPath id="clip-1"><rect x="378.95" y="373.3875" width="152.1" height="171.225" id="clip-1" fill="none" fill-rule="nonzero" stroke="none" stroke-width="0" stroke-linecap="butt"/></clipPath><linearGradient x1="381" y1="439" x2="523" y2="439" gradientUnits="userSpaceOnUse" id="color-1"><stop offset="0" stop-color="#00c0fd"/><stop offset="1" stop-color="#bb31ba"/></linearGradient></defs><g fill="none" stroke="none" stroke-width="none" stroke-linejoin="miter" stroke-miterlimit="10" stroke-dasharray="" stroke-dashoffset="0" font-family="none" font-size="none" style="mix-blend-mode: normal"><g><g clip-path="url(#clip-1)" id="Group 1"><g id="Group 1" fill="url(#color-1)" fill-rule="evenodd" stroke="none" stroke-width="2.25" stroke-linecap="round"><path d="M461.263,489.7125h17.025v4.575l-3.3,0.45c-0.22723,0.03613 -0.44987,0.09682 -0.664,0.181c-0.285,0.11104 -0.5443,0.27914 -0.762,0.494c-0.12522,0.12781 -0.23775,0.26746 -0.336,0.417c-0.19267,0.28733 -0.377,0.64967 -0.553,1.087c-0.02921,0.07333 -0.05754,0.147 -0.085,0.221l-13.8,37.65c-0.39762,1.08058 -0.87148,2.13155 -1.418,3.145c-0.584,1.07067 -1.22333,2.00867 -1.918,2.814c-0.45601,0.53242 -0.95868,1.02303 -1.502,1.466c-1.71334,1.38166 -3.81008,2.20311 -6.006,2.353c-0.38451,0.03177 -0.77018,0.04745 -1.156,0.047c-2.45067,0 -4.87567,-0.35 -7.275,-1.05l-0.825,-5.475c1.24188,0.29941 2.50284,0.51324 3.774,0.64c0.7398,0.07247 1.48266,0.10918 2.226,0.11c1.29236,0.02353 2.57331,-0.24552 3.747,-0.787c1.334,-0.63867 2.43767,-1.66633 3.311,-3.083c0.4518,-0.74464 0.82576,-1.5338 1.116,-2.355l1.951,-5.1l-11.775,-30.3c-0.09142,-0.24564 -0.1942,-0.4869 -0.308,-0.723c-0.218,-0.44933 -0.453,-0.80833 -0.705,-1.077c-0.37533,-0.4 -0.88767,-0.625 -1.537,-0.675l-3.151,-0.45v-4.575h18.151v4.575l-3.901,0.45c-0.69933,0.1 -1.049,0.45 -1.049,1.05c0,0.24867 0.17267,0.892 0.518,1.93c0.002,0.00667 0.004,0.01333 0.006,0.02l7.126,19.35l0.975,2.85v-2.925l6.674,-19.275c0.3,-0.89933 0.45,-1.549 0.45,-1.949c0.00033,-0.00033 0.00067,-0.00067 0.001,-0.001c0,-0.6 -0.375,-0.95 -1.125,-1.05l-3.9,-0.45zM511.175,450.2625l0.375,-4.275h2.4c0.71576,0.01233 1.42865,-0.09342 2.11,-0.313c1.93467,-0.662 2.93033,-2.37333 2.987,-5.134c0.00187,-0.08432 0.00287,-0.16866 0.003,-0.253c0,-1.15 -0.1,-3.125 -0.3,-5.925c-0.0884,-0.96688 -0.16741,-1.93459 -0.237,-2.903c-0.13267,-1.85733 -0.20333,-3.447 -0.212,-4.769c-0.00064,-0.09267 -0.00097,-0.18533 -0.001,-0.278c0,-2.95 0.66233,-5.625 1.987,-8.025c1.32533,-2.4 3.088,-3.925 5.288,-4.575c-1.58617,-0.47669 -2.99081,-1.42253 -4.029,-2.713c-0.47778,-0.57933 -0.89935,-1.2028 -1.259,-1.862c-1.21136,-2.21337 -1.88613,-4.68022 -1.97,-7.202c-0.01155,-0.27418 -0.01721,-0.54858 -0.017,-0.823c0.00135,-0.68855 0.01602,-1.37701 0.044,-2.065c0.06467,-1.65467 0.2,-3.61633 0.406,-5.885c0.04643,-0.64814 0.0901,-1.29648 0.131,-1.945c0.10067,-1.602 0.15633,-2.83267 0.167,-3.692c0.00126,-0.09599 0.00192,-0.192 0.002,-0.288c0,-3.24467 -1.23933,-5.104 -3.718,-5.578c-0.4558,-0.08409 -0.91852,-0.12493 -1.382,-0.122h-2.4l-0.375,-4.275h5.175c1.05914,-0.01002 2.11433,0.13038 3.134,0.417c1.4645,0.41654 2.79076,1.21761 3.841,2.32c1.27105,1.33805 2.1128,3.02572 2.417,4.846c0.14194,0.78935 0.21157,1.59 0.208,2.392c0,1.7 -0.15,4.3 -0.45,7.8c-0.05,0.65 -0.125,1.73733 -0.225,3.262c-0.06867,1.04867 -0.11367,1.985 -0.135,2.809c-0.00956,0.35125 -0.01457,0.70262 -0.015,1.054c-0.00323,0.80146 0.03951,1.60244 0.128,2.399c0.09133,0.788 0.231,1.50833 0.419,2.161c0.17983,0.64609 0.43668,1.26822 0.765,1.853c0.57591,0.99069 1.45022,1.77399 2.498,2.238c0.61933,0.28867 1.32433,0.505 2.115,0.649v4.5c-0.65556,0.11385 -1.29625,0.30103 -1.91,0.558c-1.20667,0.51667 -2.10767,1.29333 -2.703,2.33c-0.618,1.078 -1.01767,2.46233 -1.199,4.153c-0.07775,0.75046 -0.11547,1.50453 -0.113,2.259c0.00051,0.42708 0.00752,0.85413 0.021,1.281c0.012,0.384 0.02867,0.791 0.05,1.221c0.0228,0.45386 0.04914,0.90755 0.079,1.361c0.02309,0.35368 0.04642,0.70735 0.07,1.061c0.066,0.98 0.11767,1.71367 0.155,2.201c0.29467,3.43667 0.44467,6.00567 0.45,7.707c0.00005,0.031 0.00005,0.062 0,0.093c0.00898,1.07445 -0.12042,2.14559 -0.385,3.187c-0.38417,1.52087 -1.15593,2.91623 -2.24,4.05c-1.40122,1.45718 -3.26368,2.38434 -5.271,2.624c-0.56467,0.07741 -1.13405,0.11551 -1.704,0.114zM398.825,450.2625h-5.1c-1.03461,0.00918 -2.06578,-0.12031 -3.066,-0.385c-1.51934,-0.40249 -2.89802,-1.21675 -3.984,-2.353c-1.27088,-1.33778 -2.11261,-3.02508 -2.417,-4.845c-0.14194,-0.78935 -0.21157,-1.59 -0.208,-2.392c0,-1.7 0.15,-4.3 0.45,-7.8c0.01446,-0.18997 0.02846,-0.37997 0.042,-0.57c0.04733,-0.65133 0.10833,-1.549 0.183,-2.693c0.06867,-1.048 0.11367,-1.984 0.135,-2.808c0.00956,-0.35125 0.01457,-0.70262 0.015,-1.054c0.00323,-0.80146 -0.03951,-1.60244 -0.128,-2.399c-0.09133,-0.788 -0.231,-1.50833 -0.419,-2.161c-0.17983,-0.64609 -0.43668,-1.26822 -0.765,-1.853c-0.57591,-0.99069 -1.45022,-1.77399 -2.498,-2.238c-0.61933,-0.28867 -1.32433,-0.505 -2.115,-0.649v-4.5c0.65556,-0.11385 1.29625,-0.30103 1.91,-0.558c1.20667,-0.51667 2.10767,-1.29333 2.703,-2.33c0.618,-1.078 1.01767,-2.46233 1.199,-4.153c0.07775,-0.75046 0.11547,-1.50453 0.113,-2.259c-0.00051,-0.42708 -0.00752,-0.85413 -0.021,-1.281c-0.012,-0.384 -0.02867,-0.791 -0.05,-1.221c-0.0228,-0.45386 -0.04914,-0.90755 -0.079,-1.361c-0.02309,-0.35368 -0.04642,-0.70735 -0.07,-1.061c-0.066,-0.98 -0.11767,-1.71367 -0.155,-2.201c-0.29467,-3.43667 -0.44467,-6.00567 -0.45,-7.707c-0.00005,-0.031 -0.00005,-0.062 0,-0.093c-0.00898,-1.07445 0.12042,-2.14559 0.385,-3.187c0.38417,-1.52087 1.15593,-2.91623 2.24,-4.05c1.34698,-1.39786 3.12153,-2.30677 5.043,-2.583c0.66372,-0.10575 1.33491,-0.15759 2.007,-0.155h5.1l-0.375,4.275h-2.4c-3.24667,0 -4.92,1.78467 -5.02,5.354c-0.00328,0.1153 -0.00495,0.23065 -0.005,0.346c0.00101,0.33908 0.00734,0.67812 0.019,1.017c0.03733,1.172 0.131,2.808 0.281,4.908c0.0884,0.96688 0.16741,1.93459 0.237,2.903c0.13267,1.85733 0.20333,3.447 0.212,4.769c0.00064,0.09267 0.00097,0.18533 0.001,0.278c0,2.9 -0.66267,5.56267 -1.988,7.988c-1.32467,2.42467 -3.087,3.962 -5.287,4.612c1.55245,0.46677 2.92981,1.38722 3.955,2.643c0.50933,0.6099 0.95592,1.26956 1.333,1.969c1.32467,2.42533 1.987,5.088 1.987,7.988c-0.00135,0.68855 -0.01602,1.37701 -0.044,2.065c-0.06467,1.65467 -0.2,3.61633 -0.406,5.885c-0.04643,0.64814 -0.0901,1.29648 -0.131,1.945c-0.10067,1.602 -0.15633,2.83267 -0.167,3.692c-0.00126,0.09599 -0.00192,0.192 -0.002,0.288c-0.00824,0.72323 0.06693,1.44499 0.224,2.151c0.45867,1.94667 1.623,3.09233 3.493,3.437c0.43169,0.07702 0.8695,0.11451 1.308,0.112h2.4zM510.538,520.6125l3.524,0.525v4.725h-11.399l-0.675,-5.325c-0.84614,0.83024 -1.7375,1.6131 -2.67,2.345c-0.92133,0.71933 -1.83533,1.33667 -2.742,1.852c-0.20647,0.11733 -0.41518,0.23068 -0.626,0.34c-1.97467,1.02533 -4.06233,1.538 -6.263,1.538c-1.04616,0.00854 -2.08937,-0.11204 -3.106,-0.359c-1.5727,-0.37545 -3.01354,-1.17192 -4.168,-2.304c-1.27269,-1.26724 -2.12935,-2.89195 -2.456,-4.658c-0.1673,-0.84935 -0.24904,-1.71334 -0.244,-2.579c-0.01058,-1.14407 0.14332,-2.28372 0.457,-3.384c0.4332,-1.49318 1.22959,-2.85577 2.318,-3.966c1.04872,-1.05869 2.30456,-1.88967 3.689,-2.441c0.996,-0.41067 2.1,-0.72367 3.312,-0.939c0.31518,-0.0556 0.6316,-0.10395 0.949,-0.145l11.175,-1.425v-4.65c0.00501,-0.56152 -0.05982,-1.12148 -0.193,-1.667c-0.23268,-0.99203 -0.80067,-1.87333 -1.608,-2.495c-0.52713,-0.39659 -1.11789,-0.70059 -1.747,-0.899c-0.99,-0.326 -2.18233,-0.489 -3.577,-0.489c-1.27642,-0.00683 -2.54961,0.12868 -3.796,0.404c-0.96529,0.21601 -1.90514,0.53309 -2.804,0.946l-0.975,5.25h-4.875l-0.675,-8.85c2.06725,-0.80399 4.18516,-1.47109 6.34,-1.997c2.25933,-0.542 4.41933,-0.86433 6.48,-0.967c0.47629,-0.02387 0.95311,-0.03587 1.43,-0.036c3.75,0 6.89967,0.91267 9.449,2.738c2.13224,1.46935 3.50484,3.80705 3.749,6.385c0.05198,0.45715 0.07769,0.91691 0.077,1.377v18.675c-0.00091,0.20923 0.00676,0.4184 0.023,0.627c0.034,0.40733 0.10333,0.73933 0.208,0.996c0.02979,0.07427 0.06523,0.14614 0.106,0.215c0.17933,0.29867 0.49367,0.494 0.943,0.586c0.12214,0.02476 0.24572,0.04179 0.37,0.051zM443.3,445.6875l18.3,-72.3h5.175l-18.375,72.3zM418.663,525.8625v-4.725l3.525,-0.525c0.15915,-0.01117 0.31706,-0.03593 0.472,-0.074c0.39467,-0.1 0.67467,-0.28767 0.84,-0.563c0.19067,-0.31733 0.30067,-0.80467 0.33,-1.462c0.00512,-0.12527 0.00746,-0.25063 0.007,-0.376v-43.275c0,-0.85 -0.11233,-1.45 -0.337,-1.8c-0.17,-0.26467 -0.46133,-0.44367 -0.874,-0.537c-0.14429,-0.03154 -0.29067,-0.05259 -0.438,-0.063l-3.525,-0.45v-4.65h12.525v50.775c-0.00086,0.20929 0.00782,0.4185 0.026,0.627c0.038,0.41733 0.118,0.75567 0.24,1.015c0.0314,0.06764 0.06784,0.13282 0.109,0.195c0.13547,0.19914 0.32486,0.35557 0.546,0.451c0.138,0.06267 0.29433,0.11067 0.469,0.144c0.11079,0.02046 0.22263,0.03482 0.335,0.043l3.45,0.525v4.725zM435.275,404.5875l-21.9,13.2l21.825,13.2l-2.925,4.95l-26.4,-15.75v-4.725l26.475,-15.9zM477.575,399.5625l26.475,15.9v4.725l-26.325,15.75l-2.925,-4.95l21.825,-13.125l-21.975,-13.275zM396.988,525.8625v-4.725l3.525,-0.525c0.15915,-0.01117 0.31706,-0.03593 0.472,-0.074c0.39467,-0.1 0.67467,-0.28767 0.84,-0.563c0.19067,-0.31733 0.30067,-0.80467 0.33,-1.462c0.00512,-0.12527 0.00746,-0.25063 0.007,-0.376l0.001,-20.85c0.00058,-0.20924 -0.00743,-0.41842 -0.024,-0.627c-0.034,-0.40733 -0.10333,-0.73933 -0.208,-0.996c-0.02979,-0.07427 -0.06523,-0.14614 -0.106,-0.215c-0.17933,-0.29867 -0.49367,-0.494 -0.943,-0.586c-0.12214,-0.02476 -0.24572,-0.04179 -0.37,-0.051l-3.524,-0.45v-4.65h12.525v28.425c-0.00086,0.20929 0.00782,0.4185 0.026,0.627c0.038,0.41733 0.118,0.75567 0.24,1.015c0.0314,0.06764 0.06784,0.13282 0.109,0.195c0.13547,0.19914 0.32486,0.35557 0.546,0.451c0.138,0.06267 0.29433,0.11067 0.469,0.144c0.11079,0.02046 0.22263,0.03482 0.335,0.043l3.45,0.525v4.725zM501.613,515.5125v-6.375l-9.225,1.575c-1.344,0.20333 -2.43067,0.63067 -3.26,1.282c-0.1876,0.14675 -0.36408,0.30719 -0.528,0.48c-0.64565,0.68876 -1.06962,1.55551 -1.217,2.488c-0.06523,0.37983 -0.09735,0.76461 -0.096,1.15c0.00067,1.218 0.27267,2.21333 0.816,2.986c0.12594,0.17918 0.26713,0.34714 0.422,0.502c0.59187,0.58618 1.34734,0.97943 2.167,1.128c0.38548,0.0746 0.77737,0.11111 1.17,0.109c1.07248,-0.01807 2.13156,-0.24143 3.12,-0.658c1.70133,-0.68133 3.53667,-1.89167 5.506,-3.631c0.38209,-0.33755 0.75717,-0.68296 1.125,-1.036zM403.391,481.7535c0.41307,0.05831 0.82984,0.08638 1.247,0.084c1.042,0 1.92033,-0.12867 2.635,-0.386c0.4495,-0.1543 0.8658,-0.39214 1.227,-0.701c0.82533,-0.72533 1.238,-1.938 1.238,-3.638c0,-1.036 -0.13,-1.90033 -0.39,-2.593c-0.14783,-0.41133 -0.3721,-0.791 -0.661,-1.119c-0.31437,-0.33977 -0.70177,-0.60374 -1.133,-0.772c-0.33667,-0.138 -0.71833,-0.23933 -1.145,-0.304c-0.41289,-0.06031 -0.82974,-0.08939 -1.247,-0.087c-0.42797,-0.00185 -0.85559,0.02487 -1.28,0.08c-0.47667,0.064 -0.907,0.167 -1.291,0.309c-0.47808,0.16792 -0.91723,0.43087 -1.291,0.773c-0.33462,0.31933 -0.6007,0.70347 -0.782,1.129c-0.304,0.69067 -0.456,1.552 -0.456,2.584c0.00033,0.00733 0.00066,0.01467 0.001,0.022c0.00133,0.97 0.12467,1.78367 0.37,2.441c0.14874,0.42026 0.37954,0.80675 0.679,1.137c0.50867,0.54467 1.26833,0.89167 2.279,1.041z" id="CompoundPath 1"/></g></g></g></g></svg>