<svg width="152.1" height="171.225" viewBox="0 0 152.1 171.225" xmlns="http://www.w3.org/2000/svg"><g id="svgGroup" stroke-linecap="round" fill-rule="evenodd" font-size="9pt" stroke="black" stroke-width="2.25" fill="black" style="stroke:black;stroke-width:2.25;fill:black" class=""><path d="M 82.313 116.325 L 99.338 116.325 L 99.338 120.9 L 96.038 121.35 A 3.179 3.179 0 0 0 95.374 121.531 A 2.245 2.245 0 0 0 94.612 122.025 A 2.767 2.767 0 0 0 94.276 122.442 Q 93.987 122.873 93.723 123.529 A 9.993 9.993 0 0 0 93.638 123.75 L 79.838 161.4 A 24.321 24.321 0 0 1 78.42 164.545 Q 77.544 166.151 76.502 167.359 A 11.771 11.771 0 0 1 75 168.825 A 10.732 10.732 0 0 1 68.994 171.178 A 13.845 13.845 0 0 1 67.838 171.225 Q 64.162 171.225 60.563 170.175 L 59.738 164.7 A 27.924 27.924 0 0 0 63.512 165.34 A 23.091 23.091 0 0 0 65.738 165.45 A 8.572 8.572 0 0 0 69.485 164.663 Q 71.486 163.705 72.796 161.58 A 12.696 12.696 0 0 0 73.912 159.225 L 75.863 154.125 L 64.088 123.825 A 8.465 8.465 0 0 0 63.78 123.102 Q 63.453 122.428 63.075 122.025 Q 62.512 121.425 61.538 121.35 L 58.387 120.9 L 58.387 116.325 L 76.538 116.325 L 76.538 120.9 L 72.637 121.35 Q 71.588 121.5 71.588 122.4 Q 71.588 122.773 72.106 124.33 A 45.963 45.963 0 0 0 72.112 124.35 L 79.238 143.7 L 80.213 146.55 L 80.213 143.625 L 86.887 124.35 Q 87.337 123.001 87.337 122.401 A 1.887 1.887 0 0 0 87.338 122.4 Q 87.338 121.5 86.213 121.35 L 82.313 120.9 L 82.313 116.325 Z M 132.225 76.875 L 132.6 72.6 L 135 72.6 A 6.513 6.513 0 0 0 137.11 72.287 Q 140.012 71.294 140.097 67.153 A 12.319 12.319 0 0 0 140.1 66.9 Q 140.1 65.175 139.8 60.975 A 149.834 149.834 0 0 1 139.563 58.072 Q 139.364 55.286 139.351 53.303 A 41.803 41.803 0 0 1 139.35 53.025 Q 139.35 48.6 141.337 45 Q 143.325 41.4 146.625 40.425 A 8.2 8.2 0 0 1 142.596 37.712 A 11.837 11.837 0 0 1 141.337 35.85 A 16.117 16.117 0 0 1 139.367 28.648 A 19.206 19.206 0 0 1 139.35 27.825 A 53.394 53.394 0 0 1 139.394 25.76 Q 139.491 23.278 139.8 19.875 A 228.801 228.801 0 0 0 139.931 17.93 Q 140.082 15.527 140.098 14.238 A 23.394 23.394 0 0 0 140.1 13.95 Q 140.1 9.083 136.382 8.372 A 7.361 7.361 0 0 0 135 8.25 L 132.6 8.25 L 132.225 3.975 L 137.4 3.975 A 11.19 11.19 0 0 1 140.534 4.392 A 8.527 8.527 0 0 1 144.375 6.712 A 9.25 9.25 0 0 1 146.792 11.558 A 13.184 13.184 0 0 1 147 13.95 Q 147 16.5 146.55 21.75 Q 146.475 22.725 146.325 25.012 Q 146.222 26.585 146.19 27.821 A 40.565 40.565 0 0 0 146.175 28.875 A 20.962 20.962 0 0 0 146.303 31.274 Q 146.44 32.456 146.722 33.435 A 8.369 8.369 0 0 0 147.487 35.288 A 5.435 5.435 0 0 0 149.985 37.526 Q 150.914 37.959 152.1 38.175 L 152.1 42.675 A 8.88 8.88 0 0 0 150.19 43.233 Q 148.38 44.008 147.487 45.563 Q 146.56 47.18 146.288 49.716 A 21.247 21.247 0 0 0 146.175 51.975 A 42.18 42.18 0 0 0 146.196 53.256 Q 146.214 53.832 146.246 54.477 A 87.631 87.631 0 0 0 146.325 55.838 A 760.453 760.453 0 0 0 146.395 56.899 Q 146.494 58.369 146.55 59.1 Q 146.992 64.255 147 66.807 A 29.714 29.714 0 0 1 147 66.9 A 12.518 12.518 0 0 1 146.615 70.087 A 9.077 9.077 0 0 1 144.375 74.137 A 8.752 8.752 0 0 1 139.104 76.761 A 12.306 12.306 0 0 1 137.4 76.875 L 132.225 76.875 Z M 19.875 76.875 L 14.775 76.875 A 11.583 11.583 0 0 1 11.709 76.49 A 8.534 8.534 0 0 1 7.725 74.137 A 9.25 9.25 0 0 1 5.308 69.292 A 13.184 13.184 0 0 1 5.1 66.9 Q 5.1 64.35 5.55 59.1 A 117.135 117.135 0 0 0 5.592 58.53 Q 5.663 57.553 5.775 55.837 Q 5.878 54.265 5.91 53.029 A 40.565 40.565 0 0 0 5.925 51.975 A 20.962 20.962 0 0 0 5.797 49.576 Q 5.66 48.394 5.378 47.415 A 8.369 8.369 0 0 0 4.613 45.562 A 5.435 5.435 0 0 0 2.115 43.324 Q 1.186 42.891 0 42.675 L 0 38.175 A 8.88 8.88 0 0 0 1.91 37.617 Q 3.72 36.842 4.613 35.287 Q 5.54 33.67 5.812 31.134 A 21.247 21.247 0 0 0 5.925 28.875 A 42.18 42.18 0 0 0 5.904 27.594 Q 5.886 27.018 5.854 26.373 A 87.631 87.631 0 0 0 5.775 25.012 A 760.453 760.453 0 0 0 5.705 23.951 Q 5.606 22.481 5.55 21.75 Q 5.108 16.595 5.1 14.043 A 29.714 29.714 0 0 1 5.1 13.95 A 12.518 12.518 0 0 1 5.485 10.763 A 9.077 9.077 0 0 1 7.725 6.713 A 8.728 8.728 0 0 1 12.768 4.13 A 12.45 12.45 0 0 1 14.775 3.975 L 19.875 3.975 L 19.5 8.25 L 17.1 8.25 Q 12.23 8.25 12.08 13.604 A 12.345 12.345 0 0 0 12.075 13.95 A 32.369 32.369 0 0 0 12.094 14.967 Q 12.15 16.725 12.375 19.875 A 149.834 149.834 0 0 1 12.612 22.778 Q 12.811 25.564 12.824 27.547 A 41.803 41.803 0 0 1 12.825 27.825 Q 12.825 32.175 10.837 35.813 Q 8.85 39.45 5.55 40.425 A 8.126 8.126 0 0 1 9.505 43.068 A 11.83 11.83 0 0 1 10.838 45.037 Q 12.825 48.675 12.825 53.025 A 53.394 53.394 0 0 1 12.781 55.09 Q 12.684 57.572 12.375 60.975 A 228.801 228.801 0 0 0 12.244 62.92 Q 12.093 65.323 12.077 66.612 A 23.394 23.394 0 0 0 12.075 66.9 A 9.411 9.411 0 0 0 12.299 69.051 Q 12.987 71.971 15.792 72.488 A 7.212 7.212 0 0 0 17.1 72.6 L 19.5 72.6 L 19.875 76.875 Z M 131.588 147.225 L 135.112 147.75 L 135.112 152.475 L 123.713 152.475 L 123.038 147.15 A 32.188 32.188 0 0 1 120.368 149.495 Q 118.986 150.574 117.626 151.347 A 18.553 18.553 0 0 1 117 151.687 Q 114.038 153.225 110.737 153.225 A 12.718 12.718 0 0 1 107.631 152.866 A 8.907 8.907 0 0 1 103.463 150.562 A 8.843 8.843 0 0 1 101.007 145.904 A 12.954 12.954 0 0 1 100.763 143.325 A 11.94 11.94 0 0 1 101.22 139.941 A 9.411 9.411 0 0 1 103.538 135.975 A 10.835 10.835 0 0 1 107.227 133.534 Q 108.721 132.918 110.539 132.595 A 20.873 20.873 0 0 1 111.488 132.45 L 122.663 131.025 L 122.663 126.375 A 6.774 6.774 0 0 0 122.47 124.708 A 4.424 4.424 0 0 0 120.862 122.213 A 5.815 5.815 0 0 0 119.115 121.314 Q 117.63 120.825 115.538 120.825 A 17.173 17.173 0 0 0 111.742 121.229 A 14.086 14.086 0 0 0 108.938 122.175 L 107.963 127.425 L 103.088 127.425 L 102.413 118.575 A 50.571 50.571 0 0 1 108.753 116.578 Q 112.142 115.765 115.233 115.611 A 28.73 28.73 0 0 1 116.663 115.575 Q 122.288 115.575 126.112 118.313 A 8.757 8.757 0 0 1 129.861 124.698 A 12.03 12.03 0 0 1 129.938 126.075 L 129.938 144.75 A 7.652 7.652 0 0 0 129.961 145.377 Q 130.012 145.988 130.169 146.373 A 1.567 1.567 0 0 0 130.275 146.588 Q 130.544 147.036 131.218 147.174 A 2.965 2.965 0 0 0 131.588 147.225 Z M 64.35 72.3 L 82.65 0 L 87.825 0 L 69.45 72.3 L 64.35 72.3 Z M 39.713 152.475 L 39.713 147.75 L 43.238 147.225 A 2.799 2.799 0 0 0 43.71 147.151 Q 44.302 147.001 44.55 146.588 Q 44.836 146.112 44.88 145.126 A 8.446 8.446 0 0 0 44.887 144.75 L 44.887 101.475 Q 44.887 100.2 44.55 99.675 Q 44.295 99.278 43.676 99.138 A 3.062 3.062 0 0 0 43.238 99.075 L 39.713 98.625 L 39.713 93.975 L 52.238 93.975 L 52.238 144.75 A 6.891 6.891 0 0 0 52.264 145.377 Q 52.321 146.003 52.504 146.392 A 1.49 1.49 0 0 0 52.613 146.587 A 1.268 1.268 0 0 0 53.159 147.038 Q 53.366 147.132 53.628 147.182 A 3.074 3.074 0 0 0 53.963 147.225 L 57.413 147.75 L 57.413 152.475 L 39.713 152.475 Z M 56.325 31.2 L 34.425 44.4 L 56.25 57.6 L 53.325 62.55 L 26.925 46.8 L 26.925 42.075 L 53.4 26.175 L 56.325 31.2 Z M 98.625 26.175 L 125.1 42.075 L 125.1 46.8 L 98.775 62.55 L 95.85 57.6 L 117.675 44.475 L 95.7 31.2 L 98.625 26.175 Z M 18.038 152.475 L 18.038 147.75 L 21.563 147.225 A 2.799 2.799 0 0 0 22.035 147.151 Q 22.627 147.001 22.875 146.588 Q 23.161 146.112 23.205 145.126 A 8.446 8.446 0 0 0 23.212 144.75 L 23.213 123.9 A 7.652 7.652 0 0 0 23.189 123.273 Q 23.138 122.662 22.981 122.277 A 1.567 1.567 0 0 0 22.875 122.062 Q 22.606 121.614 21.932 121.476 A 2.965 2.965 0 0 0 21.562 121.425 L 18.038 120.975 L 18.038 116.325 L 30.563 116.325 L 30.563 144.75 A 6.891 6.891 0 0 0 30.589 145.377 Q 30.646 146.003 30.829 146.392 A 1.49 1.49 0 0 0 30.938 146.587 A 1.268 1.268 0 0 0 31.484 147.038 Q 31.691 147.132 31.953 147.182 A 3.074 3.074 0 0 0 32.288 147.225 L 35.738 147.75 L 35.738 152.475 L 18.038 152.475 Z M 122.663 142.125 L 122.663 135.75 L 113.438 137.325 Q 111.422 137.63 110.178 138.607 A 4.827 4.827 0 0 0 109.65 139.087 A 4.714 4.714 0 0 0 108.433 141.575 A 6.656 6.656 0 0 0 108.337 142.725 Q 108.338 144.552 109.153 145.711 A 3.801 3.801 0 0 0 109.575 146.213 A 4.125 4.125 0 0 0 111.742 147.341 A 5.988 5.988 0 0 0 112.912 147.45 A 8.398 8.398 0 0 0 116.032 146.792 Q 118.584 145.77 121.538 143.161 A 37.029 37.029 0 0 0 122.663 142.125 Z M 24.441 108.366 A 8.571 8.571 0 0 0 25.688 108.45 Q 27.251 108.45 28.323 108.064 A 3.773 3.773 0 0 0 29.55 107.363 Q 30.788 106.275 30.788 103.725 Q 30.788 102.171 30.398 101.132 A 3.467 3.467 0 0 0 29.737 100.013 A 3.058 3.058 0 0 0 28.604 99.241 Q 28.099 99.034 27.459 98.937 A 8.299 8.299 0 0 0 26.212 98.85 A 9.614 9.614 0 0 0 24.932 98.93 Q 24.217 99.026 23.641 99.239 A 3.755 3.755 0 0 0 22.35 100.012 A 3.406 3.406 0 0 0 21.568 101.141 Q 21.112 102.177 21.112 103.725 A 11.626 11.626 0 0 0 21.113 103.747 Q 21.115 105.202 21.483 106.188 A 3.363 3.363 0 0 0 22.162 107.325 Q 22.925 108.142 24.441 108.366 Z"/></g></svg>